<svg xmlns="http://www.w3.org/2000/svg" viewBox="0 0 32 32">
  <!-- Firework burst favicon: 12 rays (alternating long/short) with spark tips around a hot core -->
  <g stroke-width="2.2" stroke-linecap="round">
    <line x1="16.00" y1="10.50" x2="16.00" y2="4.20" stroke="#ff4500"/>
    <line x1="18.75" y1="11.24" x2="20.75" y2="7.77" stroke="#ff8c00"/>
    <line x1="20.76" y1="13.25" x2="26.22" y2="10.10" stroke="#ff4500"/>
    <line x1="21.50" y1="16.00" x2="25.50" y2="16.00" stroke="#ff8c00"/>
    <line x1="20.76" y1="18.75" x2="26.22" y2="21.90" stroke="#ff4500"/>
    <line x1="18.75" y1="20.76" x2="20.75" y2="24.23" stroke="#ff8c00"/>
    <line x1="16.00" y1="21.50" x2="16.00" y2="27.80" stroke="#ff4500"/>
    <line x1="13.25" y1="20.76" x2="11.25" y2="24.23" stroke="#ff8c00"/>
    <line x1="11.24" y1="18.75" x2="5.78" y2="21.90" stroke="#ff4500"/>
    <line x1="10.50" y1="16.00" x2="6.50" y2="16.00" stroke="#ff8c00"/>
    <line x1="11.24" y1="13.25" x2="5.78" y2="10.10" stroke="#ff4500"/>
    <line x1="13.25" y1="11.24" x2="11.25" y2="7.77" stroke="#ff8c00"/>
  </g>
  <circle cx="16.00" cy="2.30" r="1.3" fill="#ffd700"/>
  <circle cx="21.70" cy="6.13" r="1" fill="#ff8c00"/>
  <circle cx="27.86" cy="9.15" r="1.3" fill="#ffd700"/>
  <circle cx="27.40" cy="16.00" r="1" fill="#ff8c00"/>
  <circle cx="27.86" cy="22.85" r="1.3" fill="#ffd700"/>
  <circle cx="21.70" cy="25.87" r="1" fill="#ff8c00"/>
  <circle cx="16.00" cy="29.70" r="1.3" fill="#ffd700"/>
  <circle cx="10.30" cy="25.87" r="1" fill="#ff8c00"/>
  <circle cx="4.14" cy="22.85" r="1.3" fill="#ffd700"/>
  <circle cx="4.60" cy="16.00" r="1" fill="#ff8c00"/>
  <circle cx="4.14" cy="9.15" r="1.3" fill="#ffd700"/>
  <circle cx="10.30" cy="6.13" r="1" fill="#ff8c00"/>
  <circle cx="16" cy="16" r="3.2" fill="#ffd700"/>
  <circle cx="16" cy="16" r="1.5" fill="#fff"/>
</svg>
